<svg width="20" height="20" viewBox="0 0 20 20" fill="none" xmlns="http://www.w3.org/2000/svg">
<g clip-path="url(#clip0_129_3)">
<path d="M8.74967 16.6667C8.74967 16.9982 8.88137 17.3162 9.11579 17.5506C9.35021 17.785 9.66815 17.9167 9.99967 17.9167C10.3312 17.9167 10.6491 17.785 10.8836 17.5506C11.118 17.3162 11.2497 16.9982 11.2497 16.6667V11.25H16.6663C16.9979 11.25 17.3158 11.1183 17.5502 10.8839C17.7846 10.6495 17.9163 10.3316 17.9163 10C17.9163 9.66852 17.7846 9.35058 17.5502 9.11616C17.3158 8.88174 16.9979 8.75004 16.6663 8.75004H11.2497V3.33337C11.2497 3.00185 11.118 2.68391 10.8836 2.44949C10.6491 2.21507 10.3312 2.08337 9.99967 2.08337C9.66815 2.08337 9.35021 2.21507 9.11579 2.44949C8.88137 2.68391 8.74967 3.00185 8.74967 3.33337V8.75004H3.33301C3.00149 8.75004 2.68354 8.88174 2.44912 9.11616C2.2147 9.35058 2.08301 9.66852 2.08301 10C2.08301 10.3316 2.2147 10.6495 2.44912 10.8839C2.68354 11.1183 3.00149 11.25 3.33301 11.25H8.74967V16.6667Z" fill="white"/>
</g>
<defs>
<clipPath id="clip0_129_3">
<rect width="20" height="20" fill="white"/>
</clipPath>
</defs>
</svg>
