<svg width="18" height="18" viewBox="0 0 18 18" fill="none" xmlns="http://www.w3.org/2000/svg">
<path d="M13.7608 11.9655C14.1348 11.1605 14.2985 10.2739 14.2368 9.3884C14.175 8.50295 13.8898 7.6476 13.4077 6.90231C12.9257 6.15702 12.2625 5.54612 11.4803 5.1267C10.698 4.70728 9.82217 4.49305 8.93463 4.50402C8.04709 4.51499 7.17682 4.7508 6.40516 5.18942C5.63351 5.62805 4.98565 6.25515 4.52215 7.01213C4.05866 7.76911 3.79465 8.63124 3.7548 9.51795C3.71496 10.4047 3.90058 11.287 4.29432 12.0825M8.99982 2.25C9.19874 2.25 9.3895 2.17098 9.53015 2.03033C9.67081 1.88968 9.74982 1.69891 9.74982 1.5C9.74982 1.30109 9.67081 1.11032 9.53015 0.96967C9.3895 0.829018 9.19874 0.75 8.99982 0.75C8.80091 0.75 8.61015 0.829018 8.46949 0.96967C8.32884 1.11032 8.24982 1.30109 8.24982 1.5C8.24982 1.69891 8.32884 1.88968 8.46949 2.03033C8.61015 2.17098 8.80091 2.25 8.99982 2.25ZM8.99982 2.25V4.5M8.99982 15.75C9.19874 15.75 9.3895 15.829 9.53015 15.9697C9.67081 16.1103 9.74982 16.3011 9.74982 16.5C9.74982 16.6989 9.67081 16.8897 9.53015 17.0303C9.3895 17.171 9.19874 17.25 8.99982 17.25C8.80091 17.25 8.61015 17.171 8.46949 17.0303C8.32884 16.8897 8.24982 16.6989 8.24982 16.5C8.24982 16.3011 8.32884 16.1103 8.46949 15.9697C8.61015 15.829 8.80091 15.75 8.99982 15.75ZM8.99982 15.75C12.7536 15.75 13.4998 14.241 13.4998 14.241L14.2498 12C14.2498 12 14.1441 11.4465 13.8748 11.625C13.2133 12.063 11.6653 12.75 8.99982 12.75C6.43032 12.75 4.82232 12.0683 4.12482 11.625C3.80382 11.421 3.74982 12 3.74982 12L4.49982 14.241C4.49982 14.241 5.24607 15.75 8.99982 15.75ZM6.74982 10.5C6.94874 10.5 7.1395 10.421 7.28015 10.2803C7.42081 10.1397 7.49982 9.94891 7.49982 9.75C7.49982 9.55109 7.42081 9.36032 7.28015 9.21967C7.1395 9.07902 6.94874 9 6.74982 9C6.55091 9 6.36015 9.07902 6.21949 9.21967C6.07884 9.36032 5.99982 9.55109 5.99982 9.75C5.99982 9.94891 6.07884 10.1397 6.21949 10.2803C6.36015 10.421 6.55091 10.5 6.74982 10.5ZM11.2498 10.5C11.4487 10.5 11.6395 10.421 11.7802 10.2803C11.9208 10.1397 11.9998 9.94891 11.9998 9.75C11.9998 9.55109 11.9208 9.36032 11.7802 9.21967C11.6395 9.07902 11.4487 9 11.2498 9C11.0509 9 10.8601 9.07902 10.7195 9.21967C10.5788 9.36032 10.4998 9.55109 10.4998 9.75C10.4998 9.94891 10.5788 10.1397 10.7195 10.2803C10.8601 10.421 11.0509 10.5 11.2498 10.5Z" stroke="white" stroke-width="1.5"/>
</svg>
