<svg width="162" height="30" viewBox="0 0 162 30" fill="none" xmlns="http://www.w3.org/2000/svg">
<g clip-path="url(#clip0_105_3)">
<path opacity="0.98" d="M14.9324 0C6.6881 0 0 6.68842 0 14.9324C0 23.1764 6.68842 29.8648 14.9324 29.8648C23.1764 29.8648 29.8648 23.1764 29.8648 14.9324C29.8648 6.6881 23.1764 0 14.9324 0ZM14.1543 26.9021V17.5358H8.94758L16.4286 2.96242V12.3287H21.4408L14.1543 26.9021Z" fill="white" fill-opacity="0.8"/>
<path d="M41.7891 27.733V1.94558H57.3433V5.03401H45.3985V12.8116H56.0037V15.8631H45.3985V27.7336H41.7891V27.733ZM66.2119 25.2398L66.7427 25.2379C67.3453 25.2338 67.8878 25.2221 68.37 25.2028C69.0149 25.153 69.5482 25.0787 69.9701 24.9793V19.2117C69.7219 19.0876 69.3126 18.9884 68.742 18.9139C68.1963 18.8147 67.5265 18.7652 66.7326 18.7652C66.2116 18.7652 65.6536 18.8024 65.0583 18.8766C64.5016 18.9469 63.9606 19.1104 63.4582 19.3604C62.9889 19.582 62.5803 19.914 62.2674 20.328C61.945 20.725 61.7836 21.2583 61.7836 21.9281C61.7836 23.1685 62.1805 24.0366 62.9741 24.5327C63.7683 25.0042 64.8474 25.2398 66.2119 25.2398ZM65.9141 7.89948C67.2164 7.89948 68.3226 8.06306 69.2324 8.3899L69.4118 8.45748C70.315 8.78179 71.0451 9.24632 71.6021 9.85137L71.719 9.98337C72.3145 10.6282 72.7361 11.4098 72.9843 12.3275C73.2322 13.2205 73.3563 14.2127 73.3563 15.3044V27.3982L72.6865 27.5141C72.5078 27.546 72.3095 27.5817 72.0913 27.6215L71.6864 27.6774C71.2265 27.738 70.766 27.7938 70.3049 27.8447C69.6354 27.919 68.9034 27.9812 68.1095 28.0307C67.3405 28.1053 66.5716 28.1422 65.8023 28.1422C64.711 28.1422 63.7061 28.0307 62.7884 27.8075C61.8704 27.5842 61.0768 27.2368 60.4067 26.7654C59.7373 26.2696 59.2162 25.6244 58.8439 24.8305C58.4719 24.0366 58.2859 23.0817 58.2859 21.9654C58.2859 20.8986 58.4965 19.9806 58.9184 19.2117C59.365 18.4427 59.9605 17.8222 60.7045 17.3511C61.4489 16.8799 62.317 16.5325 63.3092 16.309C64.3017 16.086 65.3435 15.9742 66.4352 15.9742C66.7825 15.9742 67.1419 15.9992 67.5142 16.0487C67.8862 16.0734 68.2336 16.1233 68.5563 16.1975L68.887 16.2471C69.0439 16.272 69.1885 16.2966 69.3209 16.3216L69.8271 16.4248C69.8852 16.4375 69.9329 16.4488 69.9701 16.458V15.4904C69.9708 14.9271 69.9083 14.3655 69.7838 13.8161C69.66 13.2455 69.4367 12.7494 69.1143 12.3275C68.7916 11.881 68.3451 11.5339 67.7747 11.2857C67.2287 11.0128 66.5094 10.8764 65.6163 10.8764C64.5704 10.8764 63.6388 10.9491 62.8222 11.0953L62.2538 11.2014C61.5824 11.3321 61.0661 11.4717 60.7045 11.6204L60.2953 8.75527C60.7418 8.55695 61.4858 8.37095 62.5279 8.19727C63.4658 8.01853 64.4735 7.92032 65.5519 7.90232L65.9141 7.89948ZM83.5702 25.2398C84.9843 25.2398 86.0261 25.0538 86.6959 24.6818C87.3906 24.3095 87.738 23.7142 87.738 22.8957C87.738 22.0522 87.4033 21.3824 86.7332 20.8863C86.0634 20.3899 84.9594 19.8316 83.4215 19.2117C82.6984 18.9228 81.9789 18.6251 81.2631 18.3186C80.5936 17.9962 80.0103 17.6239 79.5142 17.2023C79.0177 16.7801 78.6126 16.261 78.3237 15.6767C78.0259 15.0812 77.8769 14.3495 77.8769 13.4811C77.8769 11.7695 78.5094 10.4173 79.7747 9.42506C81.0398 8.40822 82.764 7.89948 84.9471 7.89948C85.4927 7.89948 86.0384 7.93674 86.5844 8.01095C87.0968 8.05568 87.606 8.13022 88.1097 8.23422C88.5139 8.29801 88.8723 8.37095 89.1853 8.45306L89.6009 8.56674C89.8472 8.63685 90.0448 8.69937 90.1939 8.75527L89.5614 11.7322C89.1891 11.5339 88.6061 11.3353 87.8122 11.137C87.0183 10.9137 86.0634 10.8022 84.9471 10.8022C83.9795 10.8022 83.136 11.0005 82.4166 11.3972C81.6973 11.7695 81.3376 12.3647 81.3376 13.1836C81.3376 13.6052 81.4121 13.9772 81.5609 14.2999C81.7345 14.622 81.9824 14.9201 82.3052 15.193C82.6525 15.4408 83.0741 15.6767 83.5702 15.9C84.0663 16.1233 84.6619 16.3588 85.3563 16.6067C86.2743 16.9541 87.0932 17.3015 87.8122 17.6488C88.5316 17.9713 89.1395 18.3559 89.6356 18.8024C90.1554 19.2473 90.5633 19.8082 90.8264 20.4398C91.0993 21.0597 91.2357 21.829 91.2357 22.7466C91.2357 24.5327 90.5662 25.885 89.2263 26.8026C87.9117 27.7206 86.0261 28.1795 83.5702 28.1795C81.9439 28.1795 80.6539 28.0453 79.6993 27.7765L78.9199 27.5507C78.2915 27.3644 77.845 27.2144 77.5791 27.1004L78.2119 24.1235L78.6872 24.2972C79.0566 24.4298 79.5306 24.595 80.1095 24.7933C80.9267 25.0737 81.9966 25.2218 83.3192 25.2385L83.5702 25.2398ZM98.8756 8.38295H106.206V11.2857H98.8756V20.2162C98.8756 21.1838 98.9501 21.99 99.0989 22.6352C99.2479 23.2554 99.4712 23.7515 99.7686 24.1235C100.066 24.4708 100.438 24.7191 100.885 24.8678C101.331 25.0165 101.853 25.0911 102.448 25.0911C103.49 25.0911 104.321 24.9793 104.941 24.7563L106.281 24.2353L106.95 27.1004C106.603 27.2741 105.995 27.4851 105.127 27.733C104.259 28.0058 103.267 28.1422 102.15 28.1422C100.835 28.1422 99.744 27.9812 98.8756 27.6587C98.0324 27.3114 97.35 26.803 96.8293 26.1328C96.3082 25.4634 95.9359 24.6445 95.7126 23.677C95.5143 22.6847 95.4152 21.5435 95.4152 20.2538V2.98737L98.8756 2.3918V8.38295ZM128.062 27.733C127.651 26.6465 127.254 25.5548 126.872 24.4582C126.494 23.3518 126.11 22.2479 125.718 21.1465H114.033L111.689 27.733H107.931L108.766 25.4457C109.245 24.1415 109.707 22.89 110.155 21.6913L111.24 18.7948C111.898 17.0436 112.568 15.2971 113.252 13.5556C113.972 11.7736 114.712 9.9996 115.472 8.2339L115.745 7.60169C116.561 5.6984 117.417 3.81271 118.312 1.9459H121.624C122.371 3.50058 123.089 5.06841 123.78 6.64864L124.192 7.60169C125.046 9.57173 125.864 11.5567 126.648 13.5556C127.442 15.5216 128.212 17.4976 128.955 19.4833L129.782 21.6913C130.532 23.702 131.273 25.7159 132.006 27.733H128.062ZM124.676 18.1699C123.907 16.0766 123.113 13.9926 122.294 11.9182C121.551 9.94549 120.744 7.99712 119.876 6.07611C118.982 7.99616 118.15 9.94454 117.382 11.9182C116.589 13.9931 115.82 16.0772 115.075 18.1699H124.676ZM142.318 1.68506C145.845 1.68506 148.572 2.3438 150.499 3.66064L150.653 3.76895C152.613 5.13316 153.593 7.18011 153.593 9.90885C153.593 11.3972 153.32 12.6752 152.775 13.7416C152.253 14.7837 151.485 15.6395 150.467 16.309C149.475 16.9541 148.259 17.4256 146.821 17.7234C145.382 18.0208 143.757 18.1699 141.946 18.1699H139.081V27.7326H135.471V2.3179C136.488 2.06969 137.617 1.90832 138.857 1.83411C139.996 1.74474 141.044 1.69548 142.002 1.68664L142.318 1.68506ZM142.616 4.84801L141.914 4.85116C140.715 4.86064 139.77 4.89695 139.081 4.9598V15.0812H141.797C143.037 15.0812 144.154 15.007 145.146 14.8579C146.139 14.6842 146.969 14.4114 147.639 14.0394C148.334 13.6424 148.867 13.1091 149.239 12.4393C149.612 11.7695 149.798 10.9137 149.798 9.8719C149.798 8.94127 149.623 8.16348 149.274 7.53853L149.202 7.41569C148.83 6.77085 148.309 6.26211 147.639 5.89011C146.994 5.49316 146.238 5.22032 145.369 5.07127C144.501 4.92285 143.583 4.84801 142.616 4.84801ZM158.074 1.9459H161.684V27.7333H158.074V1.94558V1.9459Z" fill="white" fill-opacity="0.8"/>
</g>
<defs>
<clipPath id="clip0_105_3">
<rect width="161.684" height="30" fill="white"/>
</clipPath>
</defs>
</svg>
