<svg width="20" height="20" viewBox="0 0 20 20" fill="none" xmlns="http://www.w3.org/2000/svg">
<g clip-path="url(#clip0_103_53)">
<path d="M9.82126 0C8.53151 0 7.2544 0.254034 6.06283 0.747599C4.87126 1.24116 3.78857 1.96459 2.87658 2.87658C1.03474 4.71842 0 7.2165 0 9.82126C0 14.1623 2.8187 17.8452 6.71774 19.1515C7.2088 19.23 7.36594 18.9256 7.36594 18.6604V17.0006C4.64546 17.5899 4.066 15.6845 4.066 15.6845C3.61422 14.5453 2.97584 14.2408 2.97584 14.2408C2.08211 13.6319 3.04459 13.6515 3.04459 13.6515C4.02672 13.7203 4.54724 14.6631 4.54724 14.6631C5.40169 16.156 6.84542 15.714 7.40523 15.4783C7.49362 14.8399 7.74897 14.4078 8.02397 14.1623C5.84365 13.9167 3.5553 13.0721 3.5553 9.3302C3.5553 8.24004 3.9285 7.36594 4.56689 6.66863C4.46867 6.4231 4.12493 5.40169 4.6651 4.07582C4.6651 4.07582 5.49008 3.81065 7.36594 5.07759C8.14182 4.86152 8.98645 4.75349 9.82126 4.75349C10.6561 4.75349 11.5007 4.86152 12.2766 5.07759C14.1524 3.81065 14.9774 4.07582 14.9774 4.07582C15.5176 5.40169 15.1738 6.4231 15.0756 6.66863C15.714 7.36594 16.0872 8.24004 16.0872 9.3302C16.0872 13.0819 13.789 13.9069 11.5989 14.1524C11.9525 14.4569 12.2766 15.056 12.2766 15.9694V18.6604C12.2766 18.9256 12.4337 19.2398 12.9346 19.1515C16.8336 17.8354 19.6425 14.1623 19.6425 9.82126C19.6425 8.53151 19.3885 7.25439 18.8949 6.06283C18.4014 4.87126 17.6779 3.78857 16.7659 2.87658C15.854 1.96459 14.7713 1.24116 13.5797 0.747599C12.3881 0.254034 11.111 0 9.82126 0Z" fill="white"/>
</g>
<defs>
<clipPath id="clip0_103_53">
<rect width="20" height="20" fill="white"/>
</clipPath>
</defs>
</svg>
