<svg width="16" height="16" viewBox="0 0 16 16" fill="none" xmlns="http://www.w3.org/2000/svg">
<g clip-path="url(#clip0_135_31)">
<path d="M6.0013 7.99992C6.0013 8.17673 5.93106 8.3463 5.80604 8.47132C5.68102 8.59635 5.51145 8.66659 5.33464 8.66659C5.15782 8.66659 4.98826 8.59635 4.86323 8.47132C4.73821 8.3463 4.66797 8.17673 4.66797 7.99992C4.66797 7.82311 4.73821 7.65354 4.86323 7.52851C4.98826 7.40349 5.15782 7.33325 5.33464 7.33325C5.51145 7.33325 5.68102 7.40349 5.80604 7.52851C5.93106 7.65354 6.0013 7.82311 6.0013 7.99992ZM8.66797 7.99992C8.66797 8.17673 8.59773 8.3463 8.47271 8.47132C8.34768 8.59635 8.17811 8.66659 8.0013 8.66659C7.82449 8.66659 7.65492 8.59635 7.5299 8.47132C7.40487 8.3463 7.33464 8.17673 7.33464 7.99992C7.33464 7.82311 7.40487 7.65354 7.5299 7.52851C7.65492 7.40349 7.82449 7.33325 8.0013 7.33325C8.17811 7.33325 8.34768 7.40349 8.47271 7.52851C8.59773 7.65354 8.66797 7.82311 8.66797 7.99992ZM11.3346 7.99992C11.3346 8.17673 11.2644 8.3463 11.1394 8.47132C11.0143 8.59635 10.8448 8.66659 10.668 8.66659C10.4912 8.66659 10.3216 8.59635 10.1966 8.47132C10.0715 8.3463 10.0013 8.17673 10.0013 7.99992C10.0013 7.82311 10.0715 7.65354 10.1966 7.52851C10.3216 7.40349 10.4912 7.33325 10.668 7.33325C10.8448 7.33325 11.0143 7.40349 11.1394 7.52851C11.2644 7.65354 11.3346 7.82311 11.3346 7.99992Z" fill="white"/>
<path d="M14.6693 7.99992C14.6693 11.1426 14.6693 12.7139 13.6926 13.6899C12.7173 14.6666 11.1453 14.6666 8.0026 14.6666C4.85994 14.6666 3.2886 14.6666 2.31194 13.6899C1.33594 12.7146 1.33594 11.1426 1.33594 7.99992C1.33594 4.85725 1.33594 3.28592 2.31194 2.30925C3.28927 1.33325 4.85994 1.33325 8.0026 1.33325C11.1453 1.33325 12.7166 1.33325 13.6926 2.30925C14.3419 2.95859 14.5593 3.87125 14.6326 5.33325" stroke="white" stroke-linecap="round"/>
</g>
<defs>
<clipPath id="clip0_135_31">
<rect width="16" height="16" fill="white"/>
</clipPath>
</defs>
</svg>
