<svg width="178" height="35" viewBox="0 0 178 35" fill="none" xmlns="http://www.w3.org/2000/svg">
<path d="M57.3614 5.15V26H53.9414V11.72L47.5814 26H45.2114L38.8214 11.72V26H35.4014V5.15H39.0914L46.4114 21.5L53.7014 5.15H57.3614ZM69.0264 26.27C67.4664 26.27 66.0564 25.92 64.7964 25.22C63.5364 24.5 62.5464 23.5 61.8264 22.22C61.1064 20.92 60.7464 19.42 60.7464 17.72C60.7464 16.04 61.1164 14.55 61.8564 13.25C62.5964 11.95 63.6064 10.95 64.8864 10.25C66.1664 9.55 67.5964 9.2 69.1764 9.2C70.7564 9.2 72.1864 9.55 73.4664 10.25C74.7464 10.95 75.7564 11.95 76.4964 13.25C77.2364 14.55 77.6064 16.04 77.6064 17.72C77.6064 19.4 77.2264 20.89 76.4664 22.19C75.7064 23.49 74.6664 24.5 73.3464 25.22C72.0464 25.92 70.6064 26.27 69.0264 26.27ZM69.0264 23.3C69.9064 23.3 70.7264 23.09 71.4864 22.67C72.2664 22.25 72.8964 21.62 73.3764 20.78C73.8564 19.94 74.0964 18.92 74.0964 17.72C74.0964 16.52 73.8664 15.51 73.4064 14.69C72.9464 13.85 72.3364 13.22 71.5764 12.8C70.8164 12.38 69.9964 12.17 69.1164 12.17C68.2364 12.17 67.4164 12.38 66.6564 12.8C65.9164 13.22 65.3264 13.85 64.8864 14.69C64.4464 15.51 64.2264 16.52 64.2264 17.72C64.2264 19.5 64.6764 20.88 65.5764 21.86C66.4964 22.82 67.6464 23.3 69.0264 23.3ZM89.3273 9.2C90.6273 9.2 91.7873 9.47 92.8073 10.01C93.8473 10.55 94.6573 11.35 95.2373 12.41C95.8173 13.47 96.1073 14.75 96.1073 16.25V26H92.7173V16.76C92.7173 15.28 92.3473 14.15 91.6073 13.37C90.8673 12.57 89.8573 12.17 88.5773 12.17C87.2973 12.17 86.2773 12.57 85.5173 13.37C84.7773 14.15 84.4073 15.28 84.4073 16.76V26H80.9873V9.47H84.4073V11.36C84.9673 10.68 85.6773 10.15 86.5373 9.77C87.4173 9.39 88.3473 9.2 89.3273 9.2ZM107.13 9.2C108.41 9.2 109.54 9.46 110.52 9.98C111.52 10.48 112.3 11.11 112.86 11.87V9.47H116.31V26.27C116.31 27.79 115.99 29.14 115.35 30.32C114.71 31.52 113.78 32.46 112.56 33.14C111.36 33.82 109.92 34.16 108.24 34.16C106 34.16 104.14 33.63 102.66 32.57C101.18 31.53 100.34 30.11 100.14 28.31H103.53C103.79 29.17 104.34 29.86 105.18 30.38C106.04 30.92 107.06 31.19 108.24 31.19C109.62 31.19 110.73 30.77 111.57 29.93C112.43 29.09 112.86 27.87 112.86 26.27V23.51C112.28 24.29 111.49 24.95 110.49 25.49C109.51 26.01 108.39 26.27 107.13 26.27C105.69 26.27 104.37 25.91 103.17 25.19C101.99 24.45 101.05 23.43 100.35 22.13C99.6697 20.81 99.3297 19.32 99.3297 17.66C99.3297 16 99.6697 14.53 100.35 13.25C101.05 11.97 101.99 10.98 103.17 10.28C104.37 9.56 105.69 9.2 107.13 9.2ZM112.86 17.72C112.86 16.58 112.62 15.59 112.14 14.75C111.68 13.91 111.07 13.27 110.31 12.83C109.55 12.39 108.73 12.17 107.85 12.17C106.97 12.17 106.15 12.39 105.39 12.83C104.63 13.25 104.01 13.88 103.53 14.72C103.07 15.54 102.84 16.52 102.84 17.66C102.84 18.8 103.07 19.8 103.53 20.66C104.01 21.52 104.63 22.18 105.39 22.64C106.17 23.08 106.99 23.3 107.85 23.3C108.73 23.3 109.55 23.08 110.31 22.64C111.07 22.2 111.68 21.56 112.14 20.72C112.62 19.86 112.86 18.86 112.86 17.72ZM127.972 26.27C126.412 26.27 125.002 25.92 123.742 25.22C122.482 24.5 121.492 23.5 120.772 22.22C120.052 20.92 119.692 19.42 119.692 17.72C119.692 16.04 120.062 14.55 120.802 13.25C121.542 11.95 122.552 10.95 123.832 10.25C125.112 9.55 126.542 9.2 128.122 9.2C129.702 9.2 131.132 9.55 132.412 10.25C133.692 10.95 134.702 11.95 135.442 13.25C136.182 14.55 136.552 16.04 136.552 17.72C136.552 19.4 136.172 20.89 135.412 22.19C134.652 23.49 133.612 24.5 132.292 25.22C130.992 25.92 129.552 26.27 127.972 26.27ZM127.972 23.3C128.852 23.3 129.672 23.09 130.432 22.67C131.212 22.25 131.842 21.62 132.322 20.78C132.802 19.94 133.042 18.92 133.042 17.72C133.042 16.52 132.812 15.51 132.352 14.69C131.892 13.85 131.282 13.22 130.522 12.8C129.762 12.38 128.942 12.17 128.062 12.17C127.182 12.17 126.362 12.38 125.602 12.8C124.862 13.22 124.272 13.85 123.832 14.69C123.392 15.51 123.172 16.52 123.172 17.72C123.172 19.5 123.622 20.88 124.522 21.86C125.442 22.82 126.592 23.3 127.972 23.3ZM146.743 5.15C148.963 5.15 150.903 5.58 152.563 6.44C154.243 7.28 155.533 8.5 156.433 10.1C157.353 11.68 157.813 13.53 157.813 15.65C157.813 17.77 157.353 19.61 156.433 21.17C155.533 22.73 154.243 23.93 152.563 24.77C150.903 25.59 148.963 26 146.743 26H139.933V5.15H146.743ZM146.743 23.21C149.183 23.21 151.053 22.55 152.353 21.23C153.653 19.91 154.303 18.05 154.303 15.65C154.303 13.23 153.653 11.34 152.353 9.98C151.053 8.62 149.183 7.94 146.743 7.94H143.353V23.21H146.743ZM172.362 15.29C173.482 15.49 174.432 16.08 175.212 17.06C175.992 18.04 176.382 19.15 176.382 20.39C176.382 21.45 176.102 22.41 175.542 23.27C175.002 24.11 174.212 24.78 173.172 25.28C172.132 25.76 170.922 26 169.542 26H161.202V5.15H169.152C170.572 5.15 171.792 5.39 172.812 5.87C173.832 6.35 174.602 7 175.122 7.82C175.642 8.62 175.902 9.52 175.902 10.52C175.902 11.72 175.582 12.72 174.942 13.52C174.302 14.32 173.442 14.91 172.362 15.29ZM164.622 13.91H168.852C169.972 13.91 170.842 13.66 171.462 13.16C172.102 12.64 172.422 11.9 172.422 10.94C172.422 10 172.102 9.27 171.462 8.75C170.842 8.21 169.972 7.94 168.852 7.94H164.622V13.91ZM169.242 23.21C170.402 23.21 171.312 22.93 171.972 22.37C172.632 21.81 172.962 21.03 172.962 20.03C172.962 19.01 172.612 18.2 171.912 17.6C171.212 17 170.282 16.7 169.122 16.7H164.622V23.21H169.242Z" fill="white" fill-opacity="0.8"/>
<path d="M8.837 4.0749C7.67919 2.70111 6.68191 1.30595 6.4784 1.01605C6.47356 1.01098 6.46774 1.00694 6.46129 1.00418C6.45484 1.00142 6.4479 1 6.44088 1C6.43387 1 6.42693 1.00142 6.42048 1.00418C6.41403 1.00694 6.40821 1.01098 6.40337 1.01605C6.19964 1.30595 5.20258 2.70111 4.04477 4.0749C-5.89349 16.7498 5.61004 25.3034 5.61004 25.3034L5.70645 25.368C5.79218 26.6879 6.00659 28.5876 6.00659 28.5876H6.86427C6.86427 28.5876 7.07868 26.6986 7.16441 25.368L7.26104 25.2927C7.27173 25.3034 18.775 16.7498 8.837 4.0749ZM6.43543 25.1103C6.43543 25.1103 5.92087 24.6702 5.78149 24.445V24.4235L6.40337 10.6217C6.40337 10.5787 6.46771 10.5787 6.46771 10.6217L7.08937 24.4235V24.445C6.94999 24.6702 6.43543 25.1103 6.43543 25.1103Z" fill="white" fill-opacity="0.8"/>
</svg>
