<svg width="20" height="20" viewBox="0 0 20 20" fill="none" xmlns="http://www.w3.org/2000/svg">
<path fill-rule="evenodd" clip-rule="evenodd" d="M12.0179 4H4.94643C4.16499 4 3.41555 4.31043 2.86299 4.86299C2.31043 5.41555 2 6.16499 2 6.94643V12.8393C2 13.6207 2.31043 14.3702 2.86299 14.9227C3.41555 15.4753 4.16499 15.7857 4.94643 15.7857H12.0179C12.7993 15.7857 13.5487 15.4753 14.1013 14.9227C14.6539 14.3702 14.9643 13.6207 14.9643 12.8393V6.94643C14.9643 6.16499 14.6539 5.41555 14.1013 4.86299C13.5487 4.31043 12.7993 4 12.0179 4ZM3.17857 6.94643C3.17857 6.47756 3.36483 6.0279 3.69636 5.69636C4.0279 5.36483 4.47756 5.17857 4.94643 5.17857H12.0179C12.4867 5.17857 12.9364 5.36483 13.2679 5.69636C13.5995 6.0279 13.7857 6.47756 13.7857 6.94643V12.8393C13.7857 13.3082 13.5995 13.7578 13.2679 14.0893C12.9364 14.4209 12.4867 14.6071 12.0179 14.6071H4.94643C4.47756 14.6071 4.0279 14.4209 3.69636 14.0893C3.36483 13.7578 3.17857 13.3082 3.17857 12.8393V6.94643Z" fill="white"/>
<path fill-rule="evenodd" clip-rule="evenodd" d="M17.5893 5.27284L14.0818 7.55455C14.0003 7.60742 13.9331 7.67963 13.8862 7.76476C13.8393 7.84989 13.8142 7.9453 13.8131 8.04248L13.7813 11.1209C13.7801 11.2202 13.804 11.3181 13.8507 11.4057C13.8975 11.4933 13.9657 11.5676 14.0488 11.6218L17.5893 13.9224C17.6782 13.9803 17.7811 14.0132 17.8872 14.0175C17.9933 14.0218 18.0985 13.9973 18.1918 13.9468C18.2851 13.8962 18.3631 13.8213 18.4174 13.7301C18.4717 13.6389 18.5003 13.5347 18.5003 13.4286V5.76784C18.5005 5.66159 18.472 5.55725 18.4178 5.46587C18.3636 5.37449 18.2857 5.29947 18.1923 5.24874C18.099 5.19801 17.9936 5.17347 17.8875 5.17772C17.7813 5.18196 17.6783 5.21482 17.5893 5.27284ZM17.3217 12.3443L14.9634 10.8109L14.9882 8.3713L17.3217 6.85448V12.3443Z" fill="white"/>
</svg>
