<svg width="160" height="34" viewBox="0 0 160 34" fill="none" xmlns="http://www.w3.org/2000/svg">
<path d="M55.2519 26L50.4519 17.66H47.8419V26H44.4219V5.15H51.6219C53.2219 5.15 54.5719 5.43 55.6719 5.99C56.7919 6.55 57.6219 7.3 58.1619 8.24C58.7219 9.18 59.0019 10.23 59.0019 11.39C59.0019 12.75 58.6019 13.99 57.8019 15.11C57.0219 16.21 55.8119 16.96 54.1719 17.36L59.3319 26H55.2519ZM47.8419 14.93H51.6219C52.9019 14.93 53.8619 14.61 54.5019 13.97C55.1619 13.33 55.4919 12.47 55.4919 11.39C55.4919 10.31 55.1719 9.47 54.5319 8.87C53.8919 8.25 52.9219 7.94 51.6219 7.94H47.8419V14.93ZM62.237 17.66C62.237 16 62.577 14.53 63.257 13.25C63.957 11.97 64.897 10.98 66.077 10.28C67.277 9.56 68.597 9.2 70.037 9.2C71.337 9.2 72.467 9.46 73.427 9.98C74.407 10.48 75.187 11.11 75.767 11.87V9.47H79.217V26H75.767V23.54C75.187 24.32 74.397 24.97 73.397 25.49C72.397 26.01 71.257 26.27 69.977 26.27C68.557 26.27 67.257 25.91 66.077 25.19C64.897 24.45 63.957 23.43 63.257 22.13C62.577 20.81 62.237 19.32 62.237 17.66ZM75.767 17.72C75.767 16.58 75.527 15.59 75.047 14.75C74.587 13.91 73.977 13.27 73.217 12.83C72.457 12.39 71.637 12.17 70.757 12.17C69.877 12.17 69.057 12.39 68.297 12.83C67.537 13.25 66.917 13.88 66.437 14.72C65.977 15.54 65.747 16.52 65.747 17.66C65.747 18.8 65.977 19.8 66.437 20.66C66.917 21.52 67.537 22.18 68.297 22.64C69.077 23.08 69.897 23.3 70.757 23.3C71.637 23.3 72.457 23.08 73.217 22.64C73.977 22.2 74.587 21.56 75.047 20.72C75.527 19.86 75.767 18.86 75.767 17.72ZM85.449 7.28C84.829 7.28 84.309 7.07 83.889 6.65C83.469 6.23 83.259 5.71 83.259 5.09C83.259 4.47 83.469 3.95 83.889 3.53C84.309 3.11 84.829 2.9 85.449 2.9C86.049 2.9 86.559 3.11 86.979 3.53C87.399 3.95 87.609 4.47 87.609 5.09C87.609 5.71 87.399 6.23 86.979 6.65C86.559 7.07 86.049 7.28 85.449 7.28ZM87.129 9.47V26H83.709V9.47H87.129ZM95.0391 3.8V26H91.6191V3.8H95.0391ZM121.729 9.47L116.599 26H112.999L109.669 13.79L106.339 26H102.739L97.5793 9.47H101.059L104.509 22.76L108.019 9.47H111.589L114.949 22.7L118.369 9.47H121.729ZM123.145 17.66C123.145 16 123.485 14.53 124.165 13.25C124.865 11.97 125.805 10.98 126.985 10.28C128.185 9.56 129.505 9.2 130.945 9.2C132.245 9.2 133.375 9.46 134.335 9.98C135.315 10.48 136.095 11.11 136.675 11.87V9.47H140.125V26H136.675V23.54C136.095 24.32 135.305 24.97 134.305 25.49C133.305 26.01 132.165 26.27 130.885 26.27C129.465 26.27 128.165 25.91 126.985 25.19C125.805 24.45 124.865 23.43 124.165 22.13C123.485 20.81 123.145 19.32 123.145 17.66ZM136.675 17.72C136.675 16.58 136.435 15.59 135.955 14.75C135.495 13.91 134.885 13.27 134.125 12.83C133.365 12.39 132.545 12.17 131.665 12.17C130.785 12.17 129.965 12.39 129.205 12.83C128.445 13.25 127.825 13.88 127.345 14.72C126.885 15.54 126.655 16.52 126.655 17.66C126.655 18.8 126.885 19.8 127.345 20.66C127.825 21.52 128.445 22.18 129.205 22.64C129.985 23.08 130.805 23.3 131.665 23.3C132.545 23.3 133.365 23.08 134.125 22.64C134.885 22.2 135.495 21.56 135.955 20.72C136.435 19.86 136.675 18.86 136.675 17.72ZM159.497 9.47L149.357 33.77H145.817L149.177 25.73L142.667 9.47H146.477L151.127 22.07L155.957 9.47H159.497Z" fill="white" fill-opacity="0.8"/>
<g clip-path="url(#clip0_106_21)">
<path d="M0.14125 12.8375C0.0706613 13.3392 0.0235267 13.8439 0 14.35H22.7875C22.7031 14.1967 22.6048 14.0515 22.4938 13.9163C18.5975 8.8825 16.5025 9.32 13.5063 9.19125C12.5063 9.14875 11.8313 9.13125 7.85125 9.13125C5.72125 9.13125 3.4075 9.1375 1.15375 9.14375C0.86125 9.93125 0.58 10.6938 0.445 11.315H12.1225V12.835H0.14125V12.8375ZM22.9662 15.87H0.01125C0.03625 16.2775 0.07375 16.6762 0.12875 17.0712H21.3225C22.265 17.0712 22.7962 16.5338 22.9662 15.87ZM1.31875 21.22C1.31875 21.22 4.83125 29.8475 14.9812 30C21.05 30 26.265 26.3962 28.6313 21.22H1.32H1.31875ZM14.985 0C9.375 0 4.49125 3.0825 1.91375 7.635L7.85125 7.62875V7.62625C12.4888 7.62625 12.6625 7.64625 13.5675 7.685L14.1275 7.705C16.0813 7.77 18.4838 7.98 20.3725 9.41C21.3975 10.1862 22.8813 11.8975 23.7625 13.1163C24.58 14.2438 24.815 15.5413 24.2575 16.7838C23.7475 17.9263 22.6462 18.6063 21.3162 18.6063H0.48875C0.48875 18.6063 0.6125 19.1312 0.8 19.7137H29.235C29.7389 18.1953 29.9971 16.6061 30 15.0063C30 6.72125 23.2762 0 14.985 0Z" fill="white" fill-opacity="0.8"/>
</g>
<defs>
<clipPath id="clip0_106_21">
<rect width="30" height="30" fill="white"/>
</clipPath>
</defs>
</svg>
