<svg width="129" height="30" viewBox="0 0 129 30" fill="none" xmlns="http://www.w3.org/2000/svg">
<path d="M55.1034 26L50.3034 17.66H47.6934V26H44.2734V5.15H51.4734C53.0734 5.15 54.4234 5.43 55.5234 5.99C56.6434 6.55 57.4734 7.3 58.0134 8.24C58.5734 9.18 58.8534 10.23 58.8534 11.39C58.8534 12.75 58.4534 13.99 57.6534 15.11C56.8734 16.21 55.6634 16.96 54.0234 17.36L59.1834 26H55.1034ZM47.6934 14.93H51.4734C52.7534 14.93 53.7134 14.61 54.3534 13.97C55.0134 13.33 55.3434 12.47 55.3434 11.39C55.3434 10.31 55.0234 9.47 54.3834 8.87C53.7434 8.25 52.7734 7.94 51.4734 7.94H47.6934V14.93ZM78.3785 17.33C78.3785 17.95 78.3385 18.51 78.2585 19.01H65.6285C65.7285 20.33 66.2185 21.39 67.0985 22.19C67.9785 22.99 69.0585 23.39 70.3385 23.39C72.1785 23.39 73.4785 22.62 74.2385 21.08H77.9285C77.4285 22.6 76.5185 23.85 75.1985 24.83C73.8985 25.79 72.2785 26.27 70.3385 26.27C68.7585 26.27 67.3385 25.92 66.0785 25.22C64.8385 24.5 63.8585 23.5 63.1385 22.22C62.4385 20.92 62.0885 19.42 62.0885 17.72C62.0885 16.02 62.4285 14.53 63.1085 13.25C63.8085 11.95 64.7785 10.95 66.0185 10.25C67.2785 9.55 68.7185 9.2 70.3385 9.2C71.8985 9.2 73.2885 9.54 74.5085 10.22C75.7285 10.9 76.6785 11.86 77.3585 13.1C78.0385 14.32 78.3785 15.73 78.3785 17.33ZM74.8085 16.25C74.7885 14.99 74.3385 13.98 73.4585 13.22C72.5785 12.46 71.4885 12.08 70.1885 12.08C69.0085 12.08 67.9985 12.46 67.1585 13.22C66.3185 13.96 65.8185 14.97 65.6585 16.25H74.8085ZM80.6041 17.66C80.6041 16 80.9441 14.53 81.6241 13.25C82.3241 11.97 83.2641 10.98 84.4441 10.28C85.6441 9.56 86.9641 9.2 88.4041 9.2C89.7041 9.2 90.8341 9.46 91.7941 9.98C92.7741 10.48 93.5541 11.11 94.1341 11.87V9.47H97.5841V26H94.1341V23.54C93.5541 24.32 92.7641 24.97 91.7641 25.49C90.7641 26.01 89.6241 26.27 88.3441 26.27C86.9241 26.27 85.6241 25.91 84.4441 25.19C83.2641 24.45 82.3241 23.43 81.6241 22.13C80.9441 20.81 80.6041 19.32 80.6041 17.66ZM94.1341 17.72C94.1341 16.58 93.8941 15.59 93.4141 14.75C92.9541 13.91 92.3441 13.27 91.5841 12.83C90.8241 12.39 90.0041 12.17 89.1241 12.17C88.2441 12.17 87.4241 12.39 86.6641 12.83C85.9041 13.25 85.2841 13.88 84.8041 14.72C84.3441 15.54 84.1141 16.52 84.1141 17.66C84.1141 18.8 84.3441 19.8 84.8041 20.66C85.2841 21.52 85.9041 22.18 86.6641 22.64C87.4441 23.08 88.2641 23.3 89.1241 23.3C90.0041 23.3 90.8241 23.08 91.5841 22.64C92.3441 22.2 92.9541 21.56 93.4141 20.72C93.8941 19.86 94.1341 18.86 94.1341 17.72ZM100.936 17.72C100.936 16.02 101.276 14.53 101.956 13.25C102.656 11.95 103.616 10.95 104.836 10.25C106.056 9.55 107.456 9.2 109.036 9.2C111.036 9.2 112.686 9.68 113.986 10.64C115.306 11.58 116.196 12.93 116.656 14.69H112.966C112.666 13.87 112.186 13.23 111.526 12.77C110.866 12.31 110.036 12.08 109.036 12.08C107.636 12.08 106.516 12.58 105.676 13.58C104.856 14.56 104.446 15.94 104.446 17.72C104.446 19.5 104.856 20.89 105.676 21.89C106.516 22.89 107.636 23.39 109.036 23.39C111.016 23.39 112.326 22.52 112.966 20.78H116.656C116.176 22.46 115.276 23.8 113.956 24.8C112.636 25.78 110.996 26.27 109.036 26.27C107.456 26.27 106.056 25.92 104.836 25.22C103.616 24.5 102.656 23.5 101.956 22.22C101.276 20.92 100.936 19.42 100.936 17.72ZM124.054 12.26V21.41C124.054 22.03 124.194 22.48 124.474 22.76C124.774 23.02 125.274 23.15 125.974 23.15H128.074V26H125.374C123.834 26 122.654 25.64 121.834 24.92C121.014 24.2 120.604 23.03 120.604 21.41V12.26H118.654V9.47H120.604V5.36H124.054V9.47H128.074V12.26H124.054Z" fill="white" fill-opacity="0.8"/>
<path d="M18.0602 20.3001C17.3909 21.2518 16.6615 22.1599 15.8765 23.0188C17.9677 25.0476 19.9115 25.9976 20.9902 25.3738C22.069 24.7513 22.2177 22.5926 21.5065 19.7688C20.4402 20.0063 19.2827 20.1876 18.0602 20.3001ZM16.4227 20.4088C15.4752 20.4481 14.5265 20.4481 13.579 20.4088C14.049 21.0238 14.5265 21.5938 15.0002 22.1126C15.4752 21.5938 15.9515 21.0251 16.4227 20.4088ZM22.7227 10.5413C26.054 11.4963 28.2302 13.0838 28.2302 15.0001C28.2302 16.9163 26.0552 18.5038 22.724 19.4588C23.5615 22.8213 23.274 25.4988 21.6152 26.4563C19.9565 27.4151 17.494 26.3251 15.0002 23.9176C12.5077 26.3238 10.0452 27.4151 8.38648 26.4563C6.72648 25.4988 6.44023 22.8213 7.27773 19.4588C3.94648 18.5038 1.77148 16.9163 1.77148 15.0001C1.77148 13.0838 3.94648 11.4963 7.27773 10.5413C6.44023 7.17882 6.72773 4.50132 8.38648 3.54257C10.0452 2.58507 12.5077 3.67507 15.0002 6.08257C17.494 3.67507 19.9565 2.58507 21.6152 3.54257C23.274 4.50132 23.5615 7.17882 22.724 10.5413H22.7227ZM21.5065 10.2313C22.219 7.40632 22.069 5.24882 20.9902 4.62507C19.9115 4.00257 17.9677 4.95257 15.8777 6.98132C16.6622 7.84035 17.3912 8.74844 18.0602 9.70007C19.2827 9.81257 20.4402 9.99257 21.5065 10.2313ZM8.49398 19.7688C7.78273 22.5938 7.93148 24.7513 9.01148 25.3738C10.0902 25.9963 12.034 25.0476 14.124 23.0188C13.3393 22.1595 12.6103 21.251 11.9415 20.2988C10.7826 20.1952 9.63152 20.0178 8.49523 19.7676L8.49398 19.7688ZM13.579 9.59132C14.5265 9.55211 15.4752 9.55211 16.4227 9.59132C15.9734 9.00316 15.4987 8.43472 15.0002 7.88757C14.5252 8.40757 14.0502 8.97632 13.579 9.59132ZM11.9415 9.70007C12.6104 8.7483 13.3394 7.8402 14.124 6.98132C12.034 4.95257 10.0902 4.00257 9.01273 4.62507C7.93398 5.24882 7.78398 7.40757 8.49648 10.2313C9.56273 9.99382 10.719 9.81382 11.9415 9.70007ZM17.3665 19.1001C18.2571 17.7943 19.0489 16.4239 19.7352 15.0001C19.0498 13.5763 18.2588 12.2059 17.369 10.9001C15.7933 10.7821 14.2109 10.7821 12.6352 10.9001C11.7446 12.2058 10.9528 13.5763 10.2665 15.0001C10.9525 16.4238 11.7438 17.7943 12.634 19.1001C14.2097 19.2179 15.792 19.2179 17.3677 19.1001H17.3665ZM18.9727 18.9351C19.7415 18.8351 20.4727 18.7076 21.1602 18.5563C20.9354 17.851 20.6802 17.1558 20.3952 16.4726C19.9556 17.3126 19.4802 18.1342 18.9727 18.9351ZM11.0277 11.0638C10.259 11.1638 9.52773 11.2926 8.84023 11.4438C9.05273 12.1138 9.30898 12.8113 9.60648 13.5276C10.0461 12.6875 10.5202 11.866 11.0277 11.0651V11.0638ZM8.84023 18.5563C9.52773 18.7076 10.259 18.8351 11.0277 18.9351C10.5203 18.1342 10.0461 17.3126 9.60648 16.4726C9.3211 17.1558 9.06544 17.851 8.84023 18.5563ZM7.61773 18.2501C7.94523 17.2076 8.36773 16.1151 8.88023 15.0001C8.39071 13.9447 7.96902 12.8592 7.61773 11.7501C4.81648 12.5451 3.02148 13.7551 3.02148 15.0001C3.02148 16.2451 4.81648 17.4538 7.61773 18.2501ZM21.1627 11.4438C20.4394 11.2856 19.7096 11.1588 18.9752 11.0638C19.4827 11.8647 19.9568 12.6863 20.3965 13.5263C20.694 12.8113 20.949 12.1138 21.1627 11.4438ZM22.384 11.7501C22.059 12.7926 21.634 13.8851 21.1215 15.0001C21.634 16.1151 22.059 17.2076 22.384 18.2501C25.1865 17.4538 26.9815 16.2451 26.9815 15.0001C26.9815 13.7551 25.1865 12.5463 22.384 11.7501ZM15.0002 17.3488C14.6853 17.3591 14.3716 17.3059 14.0777 17.1925C13.7837 17.0791 13.5156 16.9078 13.2892 16.6887C13.0628 16.4695 12.8828 16.2071 12.7599 15.9171C12.6369 15.627 12.5736 15.3151 12.5736 15.0001C12.5736 14.685 12.6369 14.3732 12.7599 14.0831C12.8828 13.793 13.0628 13.5306 13.2892 13.3115C13.5156 13.0924 13.7837 12.921 14.0777 12.8076C14.3716 12.6942 14.6853 12.641 15.0002 12.6513C15.6099 12.6712 16.1879 12.9274 16.6122 13.3657C17.0364 13.804 17.2736 14.3901 17.2736 15.0001C17.2736 15.6101 17.0364 16.1961 16.6122 16.6345C16.1879 17.0728 15.6099 17.3289 15.0002 17.3488Z" fill="white" fill-opacity="0.8"/>
</svg>
