<svg width="149" height="30" viewBox="0 0 149 30" fill="none" xmlns="http://www.w3.org/2000/svg">
<g clip-path="url(#clip0_105_7)">
<path d="M8.22052 26.7579V9.6256L0.683594 13.9779L0.696286 7.48983L13.2271 0.33252V29.6679L8.22052 26.7579ZM14.3544 29.6679L19.3621 26.7579V18.5125L23.1374 20.6887L23.1109 15.0521L19.3621 12.9025V9.6256L26.899 13.9779L26.8863 7.48983L14.3555 0.33252L14.3544 29.6679Z" fill="white" fill-opacity="0.8"/>
<path d="M41.2832 9.40055H36.5375V23.594H33.7948V9.4017H29.0605V7.07324H41.2832V9.40055ZM51.099 18.4213H43.0567C43.0879 19.5129 43.4225 20.354 44.0605 20.9448C44.7044 21.5367 45.5882 21.8332 46.7086 21.8332C47.9686 21.8332 49.1248 21.4559 50.1771 20.7025V22.8579C49.1017 23.534 47.6813 23.8709 45.9148 23.8709C44.1794 23.8709 42.8155 23.3367 41.8244 22.2706C40.8413 21.1952 40.3498 19.6859 40.3498 17.7429C40.3498 15.9082 40.8921 14.414 41.9755 13.2602C43.0648 12.1017 44.4159 11.5202 46.0302 11.5202C47.6421 11.5202 48.8894 12.0394 49.7732 13.0767C50.6571 14.1129 51.099 15.554 51.099 17.3967V18.4213ZM48.5179 16.5348C48.5098 15.5736 48.2848 14.8294 47.8382 14.2998C47.3929 13.7621 46.7779 13.4921 45.9944 13.4921C45.2271 13.4921 44.574 13.7725 44.0363 14.3344C43.5055 14.894 43.1802 15.6267 43.0567 16.5348H48.5179ZM64.1513 23.594H61.4767V16.9479C61.4767 14.7429 60.699 13.6409 59.1402 13.6409C58.3255 13.6409 57.654 13.9479 57.1244 14.5629C56.5936 15.1698 56.3282 15.9382 56.3282 16.8671V23.594H53.6456V11.7971H56.3294V13.7563H56.3755C57.2594 12.2667 58.5344 11.5202 60.2006 11.5202C61.4836 11.5202 62.4621 11.9402 63.1394 12.7767C63.8144 13.6063 64.1525 14.8075 64.1525 16.3825L64.1513 23.594ZM66.6748 23.2248V20.7486C67.6729 21.509 68.7748 21.8886 69.9805 21.8886C71.5925 21.8886 72.4002 21.4132 72.4002 20.4602C72.408 20.2169 72.3349 19.9779 72.1925 19.7805C72.0402 19.5763 71.8488 19.4045 71.6294 19.2752C71.3677 19.1142 71.0891 18.9827 70.7986 18.8829C70.445 18.7536 70.0919 18.6228 69.7394 18.4905C69.2891 18.3144 68.8502 18.1106 68.4252 17.8802C68.0686 17.6861 67.7421 17.4412 67.4559 17.1532C67.2064 16.8822 67.0113 16.5657 66.8813 16.2209C66.7432 15.8335 66.6767 15.4241 66.6852 15.0129C66.6852 14.444 66.8202 13.9444 67.089 13.514C67.3567 13.0756 67.7179 12.7121 68.1713 12.4202C68.6445 12.1115 69.1665 11.8852 69.7152 11.7509C70.2921 11.5975 70.8875 11.5202 71.5002 11.5202C72.5917 11.5202 73.5679 11.6852 74.4275 12.0163V14.3563C73.5979 13.7875 72.6448 13.5036 71.5706 13.5036C71.2602 13.5001 70.9506 13.5346 70.6486 13.6063C70.4044 13.6653 70.1712 13.7627 69.9575 13.8948C69.7747 14.0079 69.6206 14.162 69.5075 14.3448C69.4003 14.5129 69.3442 14.7085 69.3459 14.9079C69.3387 15.1341 69.3947 15.3578 69.5075 15.554C69.6159 15.7294 69.7729 15.8886 69.9805 16.0259C70.1952 16.1563 70.449 16.2786 70.7398 16.394C71.0398 16.5013 71.3825 16.6213 71.7667 16.7517C72.2721 16.9594 72.7267 17.1717 73.1259 17.3852C73.5321 17.5998 73.8782 17.8467 74.1609 18.1236C74.4459 18.3913 74.6652 18.7063 74.8186 19.0663C74.9732 19.4206 75.0494 19.8429 75.0494 20.3344C75.0494 20.9332 74.9109 21.4559 74.634 21.9002C74.3558 22.3496 73.9775 22.7287 73.5286 23.0079C73.0358 23.3123 72.4945 23.53 71.9282 23.6517C71.3054 23.8005 70.667 23.8741 70.0267 23.8709C68.7367 23.8709 67.6198 23.6552 66.6748 23.2248ZM82.8136 23.8709C80.994 23.8709 79.5379 23.3217 78.4486 22.2244C77.364 21.1179 76.824 19.6548 76.824 17.8329C76.824 15.854 77.3871 14.3055 78.5167 13.1921C79.6532 12.0775 81.1821 11.5202 83.1021 11.5202C84.9448 11.5202 86.3813 12.0625 87.4106 13.1459C88.4398 14.2282 88.9544 15.7305 88.9544 17.6494C88.9544 19.5325 88.3982 21.0417 87.2836 22.1771C86.1782 23.3079 84.6875 23.8709 82.8136 23.8709ZM82.9406 13.6513C81.8963 13.6513 81.0713 14.0171 80.4632 14.7475C79.8563 15.4767 79.554 16.4829 79.554 17.7648C79.554 19.0029 79.8609 19.9779 80.4759 20.6921C81.0898 21.3982 81.9125 21.7513 82.9406 21.7513C83.994 21.7513 84.7994 21.4029 85.3602 20.7025C85.9279 20.0044 86.2129 19.0086 86.2129 17.7198C86.2129 16.4217 85.9279 15.419 85.3602 14.7129C84.7994 14.0055 83.994 13.6513 82.9406 13.6513ZM98.5175 14.3436C98.1944 14.0898 97.7306 13.9629 97.1213 13.9629C96.3321 13.9629 95.6709 14.3205 95.1413 15.0348C94.6105 15.7502 94.3452 16.7194 94.3452 17.9494V23.594H91.6729V11.7971H94.3475V14.2282H94.3913C94.6544 13.3986 95.0525 12.7536 95.5902 12.2921C96.1348 11.8248 96.744 11.5905 97.4109 11.5905C97.8956 11.5905 98.2625 11.6632 98.5163 11.8098L98.5175 14.3436ZM109.622 9.40055H103.449V14.3667H109.137V16.6825H103.447V23.594H100.706V7.07439H109.622V9.40055ZM114.945 23.594H112.26V6.12939H114.945V23.594ZM123.654 23.8709C121.834 23.8709 120.377 23.3217 119.289 22.2244C118.204 21.1179 117.663 19.6548 117.663 17.8329C117.663 15.854 118.226 14.3055 119.357 13.1921C120.494 12.0775 122.022 11.5202 123.941 11.5202C125.785 11.5202 127.222 12.0625 128.25 13.1459C129.28 14.2282 129.795 15.7305 129.795 17.6494C129.795 19.5325 129.237 21.0417 128.124 22.1771C127.019 23.3079 125.528 23.8709 123.654 23.8709ZM123.781 13.6513C122.736 13.6513 121.911 14.0171 121.304 14.7475C120.698 15.4767 120.393 16.4829 120.393 17.7648C120.393 19.0029 120.701 19.9779 121.315 20.6921C121.931 21.3982 122.752 21.7513 123.781 21.7513C124.833 21.7513 125.639 21.4029 126.201 20.7025C126.768 20.0044 127.052 19.0086 127.052 17.7198C127.052 16.4217 126.768 15.419 126.201 14.7129C125.64 14.0055 124.833 13.6513 123.781 13.6513ZM148.376 11.7971L144.897 23.594H142.097L139.954 15.5979C139.865 15.2594 139.811 14.9125 139.793 14.5629H139.747C139.715 14.907 139.645 15.2467 139.54 15.5759L137.212 23.5952H134.47L131.003 11.7971H133.769L135.91 20.3009C135.979 20.5536 136.026 20.8894 136.049 21.3129H136.129C136.152 20.9909 136.214 20.6448 136.314 20.2779L138.699 11.7971H141.21L143.329 20.3344C143.399 20.6032 143.449 20.9413 143.479 21.3498H143.56C143.586 21.0066 143.644 20.6666 143.733 20.3344L145.831 11.7971H148.376Z" fill="white" fill-opacity="0.8"/>
</g>
<defs>
<clipPath id="clip0_105_7">
<rect width="147.692" height="30" fill="white" transform="translate(0.683594)"/>
</clipPath>
</defs>
</svg>
