<svg width="17" height="16" viewBox="0 0 17 16" fill="none" xmlns="http://www.w3.org/2000/svg">
<path d="M11.8373 9.99999C12.2348 10.0002 12.616 10.1582 12.897 10.4394C13.178 10.7205 13.3359 11.1018 13.3359 11.4993V11.8827C13.3359 12.4793 13.1226 13.056 12.7359 13.5087C11.6886 14.7307 10.0973 15.3333 8.00059 15.3333C5.90392 15.3333 4.31259 14.73 3.26859 13.5067C2.88233 13.0542 2.67006 12.4789 2.66992 11.884V11.4987C2.6701 11.1011 2.82814 10.7199 3.1093 10.4389C3.39046 10.1579 3.77172 9.99999 4.16926 9.99999H11.8373ZM11.8373 11H4.16859C4.10296 10.9999 4.03796 11.0128 3.9773 11.0378C3.91664 11.0629 3.86151 11.0996 3.81508 11.146C3.76864 11.1924 3.7318 11.2475 3.70666 11.3081C3.68153 11.3687 3.66859 11.4337 3.66859 11.4993V11.8847C3.66859 12.2413 3.79659 12.5867 4.02859 12.858C4.86392 13.8367 6.17526 14.334 7.99992 14.334C9.82592 14.334 11.1373 13.8367 11.9753 12.858C12.2077 12.5862 12.3354 12.2403 12.3353 11.8827V11.4993C12.3353 11.367 12.2827 11.2401 12.1892 11.1465C12.0957 11.0529 11.9689 11.0002 11.8366 11H11.8373ZM14.7039 0.935988C14.819 0.870253 14.9555 0.852919 15.0834 0.887798C15.2113 0.922676 15.3201 1.00691 15.3859 1.12199C16.1186 2.40444 16.5029 3.85632 16.5006 5.33332C16.5006 6.83599 16.1099 8.28266 15.3786 9.55732C15.3467 9.61565 15.3034 9.66702 15.2514 9.70844C15.1994 9.74985 15.1396 9.78047 15.0756 9.7985C15.0116 9.81654 14.9447 9.82163 14.8787 9.81347C14.8127 9.80531 14.749 9.78408 14.6913 9.751C14.6336 9.71792 14.5831 9.67367 14.5427 9.62084C14.5023 9.568 14.4729 9.50765 14.4561 9.4433C14.4394 9.37895 14.4356 9.31191 14.4451 9.24609C14.4545 9.18027 14.477 9.11701 14.5113 9.05999C15.1618 7.92588 15.503 6.64076 15.5006 5.33332C15.5006 4.01132 15.1586 2.73999 14.5173 1.61799C14.4516 1.5028 14.4343 1.36623 14.4693 1.23833C14.5044 1.11043 14.5887 1.00168 14.7039 0.935988ZM8.00059 2.00265C8.88464 2.00265 9.73249 2.35384 10.3576 2.97897C10.9827 3.60409 11.3339 4.45193 11.3339 5.33599C11.3339 6.22004 10.9827 7.06789 10.3576 7.69301C9.73249 8.31813 8.88464 8.66932 8.00059 8.66932C7.11653 8.66932 6.26869 8.31813 5.64357 7.69301C5.01844 7.06789 4.66726 6.22004 4.66726 5.33599C4.66726 4.45193 5.01844 3.60409 5.64357 2.97897C6.26869 2.35384 7.11653 2.00265 8.00059 2.00265ZM12.3933 2.26666C12.5084 2.20097 12.645 2.18374 12.7729 2.21875C12.9008 2.25375 13.0096 2.33813 13.0753 2.45332C13.5741 3.33107 13.8356 4.3237 13.8339 5.33332C13.8353 6.34502 13.5727 7.33957 13.0719 8.21865C13.0394 8.27574 12.996 8.32585 12.9441 8.36614C12.8922 8.40643 12.8328 8.43611 12.7695 8.45347C12.7061 8.47083 12.64 8.47555 12.5748 8.46735C12.5096 8.45914 12.4467 8.43818 12.3896 8.40566C12.3325 8.37313 12.2824 8.32968 12.2421 8.27779C12.2018 8.2259 12.1721 8.16658 12.1548 8.10322C12.1374 8.03986 12.1327 7.9737 12.1409 7.90851C12.1491 7.84333 12.1701 7.7804 12.2026 7.72332C12.6177 6.99528 12.8353 6.17139 12.8339 5.33332C12.8355 4.49713 12.6191 3.67497 12.2059 2.94799C12.1405 2.83286 12.1233 2.69645 12.1583 2.56871C12.1933 2.44098 12.2782 2.33234 12.3933 2.26666ZM8.00059 3.00332C7.69417 3.00332 7.39075 3.06367 7.10766 3.18094C6.82457 3.2982 6.56734 3.47007 6.35067 3.68674C6.134 3.90341 5.96213 4.16063 5.84487 4.44373C5.72761 4.72682 5.66726 5.03024 5.66726 5.33665C5.66726 5.64307 5.72761 5.94649 5.84487 6.22958C5.96213 6.51268 6.134 6.7699 6.35067 6.98657C6.56734 7.20324 6.82457 7.37511 7.10766 7.49237C7.39075 7.60963 7.69417 7.66999 8.00059 7.66999C8.61943 7.66999 9.21292 7.42416 9.6505 6.98657C10.0881 6.54899 10.3339 5.95549 10.3339 5.33665C10.3339 4.71782 10.0881 4.12432 9.6505 3.68674C9.21292 3.24915 8.61943 3.00332 8.00059 3.00332Z" fill="white"/>
</svg>
